<svg xmlns="http://www.w3.org/2000/svg" width="47.796" height="32.766" viewBox="0 0 47.796 32.766">
  <g id="Icon_ionic-ios-menu" data-name="Icon ionic-ios-menu" transform="translate(-4.5 -10.125)">
    <path id="Path_1" data-name="Path 1" d="M50.3,14.806H6.491A2.194,2.194,0,0,1,4.5,12.465h0a2.194,2.194,0,0,1,1.991-2.34H50.3a2.194,2.194,0,0,1,1.991,2.34h0A2.194,2.194,0,0,1,50.3,14.806Z" transform="translate(0)" fill="#fff"/>
    <path id="Path_2" data-name="Path 2" d="M50.3,21.556H6.491A2.194,2.194,0,0,1,4.5,19.215h0a2.194,2.194,0,0,1,1.991-2.34H50.3a2.194,2.194,0,0,1,1.991,2.34h0A2.194,2.194,0,0,1,50.3,21.556Z" transform="translate(0 7.293)" fill="#fff"/>
    <path id="Path_3" data-name="Path 3" d="M50.3,28.306H6.491A2.194,2.194,0,0,1,4.5,25.965h0a2.194,2.194,0,0,1,1.991-2.34H50.3a2.194,2.194,0,0,1,1.991,2.34h0A2.194,2.194,0,0,1,50.3,28.306Z" transform="translate(0 14.585)" fill="#fff"/>
  </g>
</svg>
